inDegrees=yes
name=ik_lifting_orientations
DataType=double
version=3
OpenSimVersion=4.5-2024-01-10-34fd6af
endheader
time	pelvis_tilt	pelvis_list	pelvis_rotation	pelvis_tx	pelvis_ty	pelvis_tz	hip_flexion_r	hip_adduction_r	hip_rotation_r	knee_angle_r	knee_angle_r_beta	ankle_angle_r	subtalar_angle_r	mtp_angle_r	hip_flexion_l	hip_adduction_l	hip_rotation_l	knee_angle_l	knee_angle_l_beta	ankle_angle_l	subtalar_angle_l	mtp_angle_l	lumbar_extension	lumbar_bending	lumbar_rotation	arm_flex_r	arm_add_r	arm_rot_r	elbow_flex_r	pro_sup_r	wrist_flex_r	wrist_dev_r	arm_flex_l	arm_add_l	arm_rot_l	elbow_flex_l	pro_sup_l	wrist_flex_l	wrist_dev_l
2.2	-1.123258136454248	-1.140148178897046	-87.48632657199823	0	0.9399999998679526	0	45.01390953160705	-10.17398751819007	0	59.91492143776528	1.045712650162739	-5.048372346590465	0	0	45.01390953160705	-10.17398751819007	0	59.91492143776528	1.045712650162739	-5.048372346590465	0	0	-2.163584545624431	1.998333595080187	18.48340478208705	82.0736433604275	10.61270181147142	27.50143552958631	36.34643715917485	1.781493915422599	0	0	0	-11.47781785623372	0	88.24286268466571	1.781493915422599	0	0
2.21	-1.166727500982188	-1.188445218804757	-87.80370150263259	0	0.9399999998679526	0	45.01390501236683	-10.17379637234463	0	59.91494374089189	1.045713039425732	-5.04830346393297	0	0	45.01390501236683	-10.17379637234463	0	59.91494374089189	1.045713039425732	-5.04830346393297	0	0	-2.256869439546189	2.068509122180859	17.982081513144	82.82946608875235	12.16637274129186	27.64420211354161	34.7169480496017	1.781086973260372	0	0	0	-11.47841533232052	0	88.24326401974184	1.781086973260372	0	0
2.22	-1.257549640002493	-1.27054726655081	-88.07500886334131	0	0.9399999998679526	0	45.01390055175026	-10.17360325962481	0	59.91496533319625	1.045713416282536	-5.048233580093975	0	0	45.01390055175026	-10.17360325962481	0	59.91496533319625	1.045713416282536	-5.048233580093975	0	0	-2.38347361388187	2.172795703080485	17.61225068914768	83.33718226577321	13.14982152839499	27.72381874173816	33.66056291711012	1.780688272401715	0	0	0	-11.47899703164604	0	88.24365722692831	1.780688272401715	0	0
2.23	-1.300718454581886	-1.335117552358998	-88.19589886876395	0	0.9399999998679526	0	45.01389567719217	-10.17339061192266	0	59.91498877866051	1.045713825483082	-5.048156521937917	0	0	45.01389567719217	-10.17339061192266	0	59.91498877866051	1.045713825483082	-5.048156521937917	0	0	-2.539602928220095	2.289283435335473	17.09488275892758	83.61203392436352	13.9313374881341	28.05660734823371	32.67070162826845	1.780253623126854	0	0	0	-11.47962987779864	0	88.24408588715143	1.780253623126854	0	0
2.24	-1.294540266803908	-1.346427702482673	-88.25295945181816	0	0.9399999998679526	0	45.01389015152498	-10.17315056231355	0	59.91501542493461	1.045714290548298	-5.048069624783671	0	0	45.01389015152498	-10.17315056231355	0	59.91501542493461	1.045714290548298	-5.048069624783671	0	0	-2.620302768878803	2.332681960270546	16.73181841961234	84.1757549229209	14.67928535155912	28.22787093429745	30.99188714430011	1.779760379750123	0	0	0	-11.48034867735043	0	88.24457233413186	1.779760379750123	0	0
2.25	-1.381586164540051	-1.401086039331077	-88.45100436226126	0	0.9399999998679526	0	45.01388581239561	-10.1729617871212	0	59.91503631406103	1.045714655132332	-5.048001281874526	0	0	45.01388581239561	-10.1729617871212	0	59.91503631406103	1.045714655132332	-5.048001281874526	0	0	-2.674308397370865	2.433673254076573	16.55873385240578	84.55903824655327	15.17929586678822	28.16489118333988	29.8201119507029	1.779373275869148	0	0	0	-11.48091251200621	0	88.24495410410188	1.779373275869148	0	0
2.26	-1.441979813644634	-1.461177890050009	-88.4564004548434	0	0.9399999998679526	0	45.013882258817	-10.17281338346815	0	59.91505396796816	1.045714963251138	-5.04794799134671	0	0	45.013882258817	-10.17281338346815	0	59.91505396796816	1.045714963251138	-5.04794799134671	0	0	-2.808217918795416	2.552335065199049	16.39444448315106	85.09925152909285	15.68558691990923	28.12993720192646	28.90605427872005	1.779052335155294	0	0	0	-11.48138482769226	0	88.24527062275439	1.779052335155294	0	0
2.27	-1.495983697380002	-1.518237064785797	-88.44274100945482	0	0.9399999998679526	0	45.01387905981365	-10.17267816934008	0	59.91506970585517	1.045715237929083	-5.047899330087946	0	0	45.01387905981365	-10.17267816934008	0	59.91506970585517	1.045715237929083	-5.047899330087946	0	0	-2.943375792268628	2.684077625434393	16.50315310907321	85.47088082008278	15.85323671691771	28.2198945215116	28.13176128317388	1.778764500445737	0	0	0	-11.48180708249434	0	88.24555449150105	1.778764500445737	0	0
2.28	-1.58982830151941	-1.578830230113913	-89.26865414144837	0	0.9399999998679526	0	45.01387559349104	-10.17252871018097	0	59.91508648959636	1.045715530860628	-5.047845338393699	0	0	45.01387559349104	-10.17252871018097	0	59.91508648959636	1.045715530860628	-5.047845338393699	0	0	-3.088351982799638	2.788839409532425	17.07288546369782	85.82951275364609	16.29338799016608	28.38721758146362	26.90669855962376	1.778454519543715	0	0	0	-11.48225947620863	0	88.24586020120722	1.778454519543715	0	0
2.29	-1.695527023895562	-1.683781392006211	-90.057168262041	0	0.9399999998679526	0	45.01387062946701	-10.17231292665301	0	59.91511035994584	1.04571594747682	-5.047767275024374	0	0	45.01387062946701	-10.17231292665301	0	59.91511035994584	1.04571594747682	-5.047767275024374	0	0	-3.286675705322965	2.874754199841947	17.19075845955928	86.26435511469185	16.96430033668	28.22268571019714	25.31826317682288	1.778011758581421	0	0	0	-11.48290421769256	0	88.2462968613567	1.778011758581421	0	0
2.3	-1.783432516330086	-1.748865617057323	-90.63477496446519	0	0.9399999998679526	0	45.01386661552937	-10.17213851142586	0	59.91512965721496	1.045716284277703	-5.047704193431765	0	0	45.01386661552937	-10.17213851142586	0	59.91512965721496	1.045716284277703	-5.047704193431765	0	0	-3.420011864890415	2.965777469970933	17.72744749037708	86.5406600812632	16.4677048827015	27.75596604901814	24.14780151298992	1.77765374631213	0	0	0	-11.48342552986278	0	88.24664994056749	1.77765374631213	0	0
2.31	-1.859081363400774	-1.828072489361467	-91.09970509557864	0	0.9399999998679526	0	45.01386258930076	-10.17196401682147	0	59.91514904381135	1.04571662263764	-5.047641125649109	0	0	45.01386258930076	-10.17196401682147	0	59.91514904381135	1.04571662263764	-5.047641125649109	0	0	-3.584646632848129	3.02207742707315	18.1587741285254	86.68639961489011	16.36154535128079	27.39493937822239	24.33459364382269	1.77729439871865	0	0	0	-11.48394907073247	0	88.24700433671488	1.77729439871865	0	0
2.32	-1.93712798305059	-1.904347413835373	-91.38514421613513	0	0.9399999998679526	0	45.0138586502507	-10.17179285834187	0	59.91516796029897	1.045716952792632	-5.047579244329255	0	0	45.0138586502507	-10.17179285834187	0	59.91516796029897	1.045716952792632	-5.047579244329255	0	0	-3.75365652622236	3.122762017115441	18.91398945328779	86.82322088119152	16.0838738348596	27.5044438928456	24.54776935023974	1.776943167991587	0	0	0	-11.48446035637262	0	88.24735072782252	1.776943167991587	0	0
2.33	-2.018072281538698	-1.962657188009851	-91.61092961869247	0	0.9399999998679526	0	45.01385524601012	-10.17164522743701	0	59.91518432755355	1.045717238455114	-5.047525896587731	0	0	45.01385524601012	-10.17164522743701	0	59.91518432755355	1.045717238455114	-5.047525896587731	0	0	-3.841077675871099	3.221605405649472	19.37668718522821	87.14360746389775	16.49259699771919	27.8787975813592	23.9109064759916	1.776639471706204	0	0	0	-11.48490262851194	0	88.24765023947468	1.776639471706204	0	0
2.34	-2.078062000331125	-1.996224069612415	-91.83019312183018	0	0.9399999998679526	0	45.01385188428542	-10.17150609114618	0	59.91520108938189	1.045717531004207	-5.047476076223797	0	0	45.01385188428542	-10.17150609114618	0	59.91520108938189	1.045717531004207	-5.047476076223797	0	0	-3.914794224622538	3.308250879870291	19.82475493352381	87.70918929001037	16.73099179529827	27.88596913261363	22.65478784068034	1.776335287139126	0	0	0	-11.48535093371452	0	88.24795023288357	1.776335287139126	0	0
2.35	-2.10755575598185	-2.018624137979707	-91.9838136968343	0	0.9399999998679526	0	45.01384802576687	-10.17134469014771	0	59.9152201667441	1.04571786396699	-5.047418168873135	0	0	45.01384802576687	-10.17134469014771	0	59.9152201667441	1.04571786396699	-5.047418168873135	0	0	-4.013331374555807	3.333415406571717	20.19572692733265	88.08725439621126	16.67617269071121	27.81409235077937	21.77929167289256	1.77598728262748	0	0	0	-11.48586242497748	0	88.24829344241857	1.77598728262748	0	0
2.36	-2.16818139252108	-2.100576098264264	-92.15380085003615	0	0.9399999998679526	0	45.0138446751634	-10.17119980203152	0	59.91523629214765	1.045718145408376	-5.047365863129317	0	0	45.0138446751634	-10.17119980203152	0	59.91523629214765	1.045718145408376	-5.047365863129317	0	0	-4.141463010459778	3.357919836161557	20.4657574880724	87.97043079447813	16.15162383825615	27.44386362275819	22.09247244407597	1.775688206252942	0	0	0	-11.48629815019426	0	88.24858839782658	1.775688206252942	0	0
2.37	-2.18578443511728	-2.139864040098669	-92.21180908549299	0	0.9399999998679526	0	45.01384091618845	-10.17103726679331	0	59.91525437555286	1.045718461023337	-5.047307196339439	0	0	45.01384091618845	-10.17103726679331	0	59.91525437555286	1.045718461023337	-5.047307196339439	0	0	-4.173859528229961	3.362298793964124	20.46874573118912	87.66995138023889	15.55948521699412	27.15535078456842	22.77919985870033	1.775352712087349	0	0	0	-11.48678688114404	0	88.2489192692246	1.775352712087349	0	0
2.38	-2.238869041335938	-2.17241853663083	-92.25297159143906	0	0.9399999998679526	0	45.01383756346003	-10.17089230008945	0	59.91527049787484	1.045718742410938	-5.047254878485939	0	0	45.01383756346003	-10.17089230008945	0	59.91527049787484	1.045718742410938	-5.047254878485939	0	0	-4.213410113211623	3.416084062833803	20.50459758864877	87.46663398603121	14.84613459087486	26.8560357051011	22.99423816738973	1.775053507924898	0	0	0	-11.48722269942708	0	88.24921435065757	1.775053507924898	0	0
2.39	-2.272205815045532	-2.190512075832384	-92.19280731836281	0	0.9399999998679526	0	45.01383370772186	-10.17072762169279	0	59.91528921157496	1.04571906902662	-5.047195598576483	0	0	45.01383370772186	-10.17072762169279	0	59.91528921157496	1.04571906902662	-5.047195598576483	0	0	-4.257237135998442	3.478888417463449	20.87332636856512	87.56572857719598	14.23530827572171	26.70332698272375	22.63354341571354	1.774708159557343	0	0	0	-11.48772727415269	0	88.24955494053481	1.774708159557343	0	0
2.4	-2.27296205121092	-2.216100522718816	-92.12481449154991	0	0.9399999998679526	0	45.01382935782268	-10.17053962512788	0	59.91531011430443	1.045719433848072	-5.047127780885142	0	0	45.01382935782268	-10.17053962512788	0	59.91531011430443	1.045719433848072	-5.047127780885142	0	0	-4.271507518962052	3.458632441708307	21.25455946681717	87.47463477638148	13.85288008763435	26.66257003252136	23.11011071831528	1.77432002089198	0	0	0	-11.48829253898185	0	88.24993773104192	1.77432002089198	0	0
2.41	-2.258976307728215	-2.244350891033274	-92.0387861779539	0	0.9399999998679526	0	45.0138260824634	-10.17039851460399	0	59.91532588458578	1.045719709091406	-5.047076917039084	0	0	45.0138260824634	-10.17039851460399	0	59.91532588458578	1.045719709091406	-5.047076917039084	0	0	-4.308111513394946	3.434010490069721	21.37681663279239	87.18861934346128	13.67295806463967	26.7567526405345	24.20130277188547	1.774027521465547	0	0	0	-11.48871880804122	0	88.25022620013381	1.774027521465547	0	0
